<svg width="571" height="570" viewBox="0 0 571 570" fill="none" xmlns="http://www.w3.org/2000/svg">
<circle cx="285" cy="284.901" r="149" fill="#9D7C7C"/>
<circle cx="285" cy="285.001" r="156.544" stroke="#DBDBDB" stroke-opacity="0.8" stroke-width="0.685096"/>
<circle cx="284.999" cy="285.001" r="220.944" stroke="#DBDBDB" stroke-opacity="0.8" stroke-width="0.685096"/>
<circle cx="285" cy="285.001" r="284.657" stroke="#DBDBDB" stroke-opacity="0.8" stroke-width="0.685096"/>
<circle cx="153.128" cy="537.029" r="17.1274" fill="#FBEBE2"/>
<path d="M146.433 544.373L148.725 542.081M148.725 542.081C149.489 542.845 150.545 543.318 151.711 543.318C154.043 543.318 155.933 541.427 155.933 539.095C155.933 536.763 154.043 534.873 151.711 534.873C149.379 534.873 147.489 536.763 147.489 539.095C147.489 540.261 147.961 541.317 148.725 542.081Z" stroke="#141B34" stroke-width="1.425" stroke-linecap="round"/>
<path d="M144.533 539.801C143.929 538.76 143.583 537.551 143.583 536.262C143.583 532.347 146.773 529.173 150.708 529.173H155.458C159.393 529.173 162.583 532.347 162.583 536.262C162.583 539.349 160.6 541.975 157.833 542.948" stroke="#141B34" stroke-width="1.425" stroke-linecap="round"/>
<circle cx="287.128" cy="64.0285" r="16.6274" fill="#FFDDCB" stroke="#FF8D52"/>
<path d="M291.049 74.0134V73.0745V73.0547C291.054 72.5368 291.478 72.1183 292.003 72.1134L292.075 72.1133C293.435 72.1025 294.603 71.1579 294.881 69.8448L294.891 69.7955L295.384 67.3634L296.278 66.9225C296.757 66.6866 296.996 66.5686 297.048 66.3522C297.1 66.1359 296.939 65.9248 296.618 65.5028L294.806 63.1201C294.626 62.8829 294.535 62.7644 294.487 62.639C294.439 62.5135 294.424 62.3358 294.394 61.9803C294.068 58.0792 290.754 55.0134 286.714 55.0134C282.458 55.0134 279.007 58.4161 279.007 62.6134C279.007 65.2256 280.344 67.53 282.379 68.898M282.379 68.898V74.0134M282.379 68.898C282.968 69.2937 283.615 69.6111 284.306 69.8349" stroke="black" stroke-width="1.14" stroke-linecap="round" stroke-linejoin="round"/>
<path d="M289.933 61.6636L290.807 62.4168C291.174 62.7335 291.358 62.8918 291.358 63.0886C291.358 63.2853 291.174 63.4437 290.807 63.7603L289.933 64.5136" stroke="black" stroke-width="1.14" stroke-linecap="round" stroke-linejoin="round"/>
<path d="M283.282 61.6636L282.409 62.4168C282.041 62.7335 281.857 62.8918 281.857 63.0886C281.857 63.2853 282.041 63.4437 282.409 63.7603L283.282 64.5136" stroke="black" stroke-width="1.14" stroke-linecap="round" stroke-linejoin="round"/>
<path d="M287.558 60.7134L285.658 65.4634" stroke="black" stroke-width="1.14" stroke-linecap="round" stroke-linejoin="round"/>
<circle cx="553.128" cy="371.029" r="17.1274" fill="#DCECF8"/>
<path d="M546.542 368.581C546.542 365.446 546.542 363.878 547.515 362.905C548.489 361.931 550.057 361.931 553.192 361.931C556.326 361.931 557.894 361.931 558.868 362.905C559.842 363.878 559.842 365.446 559.842 368.581V374.281C559.842 377.415 559.842 378.983 558.868 379.957C557.894 380.931 556.326 380.931 553.192 380.931C550.057 380.931 548.489 380.931 547.515 379.957C546.542 378.983 546.542 377.415 546.542 374.281V368.581Z" stroke="black" stroke-width="1.14" stroke-linecap="round"/>
<path d="M552.242 378.081H554.142" stroke="black" stroke-width="1.14" stroke-linecap="round" stroke-linejoin="round"/>
<path d="M550.341 361.931L550.426 362.438C550.609 363.537 550.701 364.087 551.078 364.422C551.471 364.771 552.029 364.781 553.191 364.781C554.354 364.781 554.912 364.771 555.305 364.422C555.682 364.087 555.774 363.537 555.957 362.438L556.041 361.931" stroke="black" stroke-width="1.14" stroke-linejoin="round"/>
<circle cx="41.1284" cy="133.029" r="17.1274" fill="#DCECF8"/>
<path d="M31.9561 132.746C31.9561 128.492 31.9561 126.364 33.2777 125.043C34.5994 123.721 36.7266 123.721 40.9811 123.721C45.2354 123.721 47.3627 123.721 48.6844 125.043C50.0061 126.364 50.0061 128.492 50.0061 132.746C50.0061 137 50.0061 139.128 48.6844 140.449C47.3627 141.771 45.2354 141.771 40.9811 141.771C36.7266 141.771 34.5994 141.771 33.2777 140.449C31.9561 139.128 31.9561 137 31.9561 132.746Z" stroke="#141B34" stroke-width="1.425"/>
<path d="M31.9561 129.896H50.0061" stroke="#141B34" stroke-width="1.425" stroke-linejoin="round"/>
<path d="M41.9312 133.696H45.7312" stroke="#141B34" stroke-width="1.425" stroke-linecap="round" stroke-linejoin="round"/>
<path d="M41.9312 137.496H43.8312" stroke="#141B34" stroke-width="1.425" stroke-linecap="round" stroke-linejoin="round"/>
<path d="M36.2314 127.046H36.2404" stroke="#141B34" stroke-width="1.9" stroke-linecap="round" stroke-linejoin="round"/>
<path d="M40.0312 127.046H40.0402" stroke="#141B34" stroke-width="1.9" stroke-linecap="round" stroke-linejoin="round"/>
<path d="M38.1313 129.896V141.771" stroke="#141B34" stroke-width="1.425" stroke-linecap="round" stroke-linejoin="round"/>
</svg>
