<svg width="571" height="588" viewBox="0 0 571 588" fill="none" xmlns="http://www.w3.org/2000/svg">
<circle cx="285" cy="302.001" r="149" fill="#E06E51"/>
<circle cx="285" cy="302.101" r="156.544" stroke="#DBDBDB" stroke-opacity="0.8" stroke-width="0.685096"/>
<circle cx="284.999" cy="302.101" r="220.944" stroke="#DBDBDB" stroke-opacity="0.8" stroke-width="0.685096"/>
<circle cx="285" cy="302.101" r="284.657" stroke="#DBDBDB" stroke-opacity="0.8" stroke-width="0.685096"/>
<circle cx="553.128" cy="390.678" r="17.1274" fill="#FBEBE2"/>
<path d="M546.433 398.022L548.725 395.73M548.725 395.73C549.489 396.494 550.545 396.967 551.711 396.967C554.043 396.967 555.933 395.076 555.933 392.744C555.933 390.413 554.043 388.522 551.711 388.522C549.379 388.522 547.489 390.413 547.489 392.744C547.489 393.91 547.961 394.966 548.725 395.73Z" stroke="#141B34" stroke-width="1.425" stroke-linecap="round"/>
<path d="M544.533 393.451C543.929 392.409 543.583 391.2 543.583 389.911C543.583 385.996 546.773 382.822 550.708 382.822H555.458C559.393 382.822 562.583 385.996 562.583 389.911C562.583 392.998 560.6 395.624 557.833 396.597" stroke="#141B34" stroke-width="1.425" stroke-linecap="round"/>
<circle cx="66.5268" cy="282.179" r="17.1274" fill="#FFDDCB"/>
<path d="M70.4474 292.163V291.225V291.205C70.4522 290.687 70.8768 290.268 71.4019 290.263L71.4731 290.263C72.8331 290.253 74.0015 289.308 74.279 287.995L74.2891 287.946L74.7823 285.513L75.6766 285.073C76.1552 284.837 76.3944 284.719 76.4462 284.502C76.4979 284.286 76.3375 284.075 76.0165 283.653L74.2044 281.27C74.024 281.033 73.9339 280.914 73.8855 280.789C73.8373 280.664 73.8224 280.486 73.7927 280.13C73.4664 276.229 70.1524 273.163 66.1124 273.163C61.8561 273.163 58.4058 276.566 58.4058 280.763C58.4058 283.376 59.7421 285.68 61.7774 287.048M61.7774 287.048V292.163M61.7774 287.048C62.3663 287.444 63.0136 287.761 63.7041 287.985" stroke="black" stroke-width="1.14" stroke-linecap="round" stroke-linejoin="round"/>
<path d="M69.3311 279.813L70.205 280.567C70.5723 280.883 70.7561 281.042 70.7561 281.238C70.7561 281.435 70.5723 281.594 70.205 281.91L69.3311 282.663" stroke="black" stroke-width="1.14" stroke-linecap="round" stroke-linejoin="round"/>
<path d="M62.6809 279.813L61.8069 280.567C61.4396 280.883 61.2559 281.042 61.2559 281.238C61.2559 281.435 61.4396 281.594 61.8069 281.91L62.6809 282.663" stroke="black" stroke-width="1.14" stroke-linecap="round" stroke-linejoin="round"/>
<path d="M66.9562 278.864L65.0562 283.614" stroke="black" stroke-width="1.14" stroke-linecap="round" stroke-linejoin="round"/>
<circle cx="285.027" cy="17.1284" r="16.6524" fill="#DCECF8" stroke="#37517E" stroke-width="0.95"/>
<path d="M278.44 14.6804C278.44 11.5456 278.44 9.97813 279.414 9.00427C280.388 8.0304 281.955 8.0304 285.09 8.0304C288.225 8.0304 289.792 8.0304 290.766 9.00427C291.74 9.97813 291.74 11.5456 291.74 14.6804V20.3804C291.74 23.5152 291.74 25.0826 290.766 26.0565C289.792 27.0304 288.225 27.0304 285.09 27.0304C281.955 27.0304 280.388 27.0304 279.414 26.0565C278.44 25.0826 278.44 23.5152 278.44 20.3804V14.6804Z" stroke="black" stroke-width="1.14" stroke-linecap="round"/>
<path d="M284.14 24.1804H286.04" stroke="black" stroke-width="1.14" stroke-linecap="round" stroke-linejoin="round"/>
<path d="M282.24 8.0304L282.324 8.53771C282.508 9.63712 282.599 10.1868 282.976 10.5213C283.369 10.8703 283.927 10.8804 285.09 10.8804C286.252 10.8804 286.81 10.8703 287.203 10.5213C287.58 10.1868 287.672 9.63712 287.855 8.53771L287.94 8.0304" stroke="black" stroke-width="1.14" stroke-linejoin="round"/>
<circle cx="132.128" cy="545.678" r="17.1274" fill="#DCECF8"/>
<path d="M122.956 545.395C122.956 541.141 122.956 539.013 124.278 537.692C125.599 536.37 127.727 536.37 131.981 536.37C136.235 536.37 138.363 536.37 139.684 537.692C141.006 539.013 141.006 541.141 141.006 545.395C141.006 549.65 141.006 551.777 139.684 553.098C138.363 554.42 136.235 554.42 131.981 554.42C127.727 554.42 125.599 554.42 124.278 553.098C122.956 551.777 122.956 549.65 122.956 545.395Z" stroke="#141B34" stroke-width="1.425"/>
<path d="M122.956 542.545H141.006" stroke="#141B34" stroke-width="1.425" stroke-linejoin="round"/>
<path d="M132.931 546.345H136.731" stroke="#141B34" stroke-width="1.425" stroke-linecap="round" stroke-linejoin="round"/>
<path d="M132.931 550.145H134.831" stroke="#141B34" stroke-width="1.425" stroke-linecap="round" stroke-linejoin="round"/>
<path d="M127.231 539.695H127.24" stroke="#141B34" stroke-width="1.9" stroke-linecap="round" stroke-linejoin="round"/>
<path d="M131.031 539.695H131.04" stroke="#141B34" stroke-width="1.9" stroke-linecap="round" stroke-linejoin="round"/>
<path d="M129.131 542.545V554.42" stroke="#141B34" stroke-width="1.425" stroke-linecap="round" stroke-linejoin="round"/>
</svg>
