<svg width="29" height="30" viewBox="0 0 29 30" fill="none" xmlns="http://www.w3.org/2000/svg">
<g clip-path="url(#clip0_27_1364)">
<mask id="mask0_27_1364" style="mask-type:luminance" maskUnits="userSpaceOnUse" x="0" y="0" width="29" height="30">
<path d="M28.7446 0.807373H0.400391V29.1515H28.7446V0.807373Z" fill="white"/>
</mask>
<g mask="url(#mask0_27_1364)">
<path d="M9.25794 2.93908C6.44013 4.11271 3.41196 5.36937 2.52066 5.74028C1.63491 6.1112 0.837732 6.45443 0.749156 6.50979C0.444678 6.69247 0.400391 6.88623 0.400391 7.99896C0.400391 9.16705 0.45575 9.35528 0.843268 9.55457C1.05917 9.66529 1.13667 9.66529 14.5725 9.66529C28.0083 9.66529 28.0858 9.66529 28.3017 9.55457C28.6892 9.35528 28.7445 9.16705 28.7445 8.0045C28.7445 6.84748 28.6892 6.65372 28.3127 6.45996C28.1965 6.39907 27.1447 5.95619 25.9711 5.46902C16.0949 1.36687 14.733 0.807737 14.5614 0.813273C14.4507 0.813273 12.3249 1.66581 9.25794 2.93908ZM19.9424 5.62403C20.1915 5.75136 20.3852 6.06691 20.3852 6.34371C20.3852 6.6205 20.1915 6.93606 19.9424 7.06338C19.732 7.1741 19.6268 7.1741 14.567 7.1741H9.41293L9.19151 7.05231C8.63238 6.73676 8.62684 5.97833 9.18044 5.64617L9.39637 5.51331H14.5614C19.6268 5.51331 19.732 5.51331 19.9424 5.62403Z" fill="#FF8045"/>
<path d="M3.05859 15.6159V19.9062H5.16226H7.26593V15.6159V11.3254H5.16226H3.05859V15.6159Z" fill="#FF8045"/>
<path d="M21.8809 15.6159V19.9062H23.9845H26.0882V15.6159V11.3254H23.9845H21.8809V15.6159Z" fill="#FF8045"/>
<path d="M14.1741 12.549C13.9028 12.6874 13.7422 12.9974 13.7422 13.3849V13.6783L13.4544 13.8112C13.0946 13.9772 12.5354 14.5253 12.3638 14.8851C11.8711 15.9093 12.0427 16.9944 12.8289 17.7749C13.2883 18.2399 13.9415 18.5223 14.5505 18.5223C14.9934 18.5223 15.403 18.9209 15.403 19.3582C15.403 19.7679 14.9823 20.1831 14.5671 20.1831C14.163 20.1831 13.7422 19.7624 13.7422 19.3527C13.7422 19.0759 13.5485 18.7603 13.2994 18.633C13.0226 18.4946 12.8011 18.4946 12.5243 18.633C11.6386 19.0814 12.1811 20.8972 13.3825 21.5172L13.7422 21.7055V21.9989C13.7422 22.3919 13.9028 22.6964 14.1851 22.8404C14.7941 23.1504 15.403 22.7297 15.403 21.9989V21.7055L15.6965 21.5671C16.0508 21.401 16.6044 20.8585 16.7815 20.4986C17.2742 19.48 17.1026 18.3895 16.3165 17.6033C15.8515 17.1383 15.2093 16.8615 14.5893 16.8615C14.163 16.8615 13.7422 16.4519 13.7422 16.0311C13.7422 15.6215 14.163 15.2007 14.5671 15.2007C14.9934 15.2007 15.403 15.6104 15.403 16.0311C15.403 16.4519 15.8127 16.8615 16.2334 16.8615C16.3276 16.8615 16.5047 16.8117 16.621 16.7508C17.1358 16.4851 17.2023 15.7487 16.7815 14.8851C16.5988 14.5198 16.0508 13.9772 15.6965 13.8112L15.403 13.6783V13.3849C15.403 12.6486 14.7775 12.2279 14.1741 12.549Z" fill="#FF8045"/>
<path d="M2.45495 21.6615C2.03975 21.8774 1.95671 22.1487 1.95117 23.2669V24.0585H5.16757H8.38397L8.36736 23.1285C8.34522 22.1154 8.30093 21.9604 7.96877 21.7113C7.81377 21.5951 7.75841 21.5951 5.22847 21.5784C2.848 21.5673 2.62656 21.5729 2.45495 21.6615Z" fill="#FF8045"/>
<path d="M21.2773 21.6615C20.862 21.8774 20.779 22.1487 20.7734 23.2669V24.0585H23.9899H27.2062L27.1897 23.1285C27.1675 22.1154 27.1232 21.9604 26.7911 21.7113C26.6361 21.5951 26.5807 21.5951 24.0507 21.5784C21.6703 21.5673 21.4488 21.5729 21.2773 21.6615Z" fill="#FF8045"/>
<path d="M1.12007 25.6142C0.88202 25.7138 0.621829 25.9407 0.51111 26.1622C0.411463 26.356 0.400391 26.4888 0.400391 27.4355C0.400391 28.6589 0.450214 28.8416 0.843268 29.0409C1.05917 29.1516 1.13667 29.1516 14.5725 29.1516C28.0083 29.1516 28.0858 29.1516 28.3017 29.0409C28.4456 28.969 28.5619 28.8527 28.6338 28.7032C28.7445 28.4929 28.7501 28.4043 28.7335 27.3525L28.7169 26.2286L28.5452 26.0128C28.4512 25.8965 28.2906 25.747 28.1909 25.675L28.0083 25.5532L14.6334 25.5588C5.98065 25.5588 1.20864 25.5809 1.12007 25.6142Z" fill="#FF8045"/>
</g>
</g>
<defs>
<clipPath id="clip0_27_1364">
<rect width="28.3442" height="28.3442" fill="white" transform="translate(0.400391 0.807373)"/>
</clipPath>
</defs>
</svg>
