<svg width="30" height="30" viewBox="0 0 30 30" fill="none" xmlns="http://www.w3.org/2000/svg">
<path d="M1.81641 3.11208C1.97543 2.88946 2.19167 2.82585 2.45882 2.83221C3.2666 2.84493 4.06801 2.83221 4.87579 2.83857C6.40231 2.84493 7.47086 3.78628 7.68076 5.29371C7.74436 5.75166 7.82705 6.20326 7.90337 6.68666C8.03057 6.68666 8.15144 6.68666 8.26591 6.68666C14.6327 6.68666 20.9995 6.68666 27.3663 6.68666C27.4682 6.68666 27.57 6.6803 27.6717 6.69301C28.0469 6.71846 28.2251 6.97287 28.0979 7.32906C27.7735 8.27678 27.4427 9.22448 27.1183 10.1659C26.6222 11.597 26.1261 13.028 25.63 14.4592C25.1974 15.6994 24.2434 16.38 22.9268 16.38C18.5381 16.38 14.1494 16.38 9.76699 16.38C9.66522 16.38 9.56345 16.38 9.42352 16.38C9.56981 17.2577 9.67797 18.1164 9.86877 18.9496C10.0469 19.7193 10.772 20.209 11.6052 20.2218C12.203 20.2281 12.8073 20.2218 13.4051 20.2218C17.1515 20.2218 20.8978 20.2218 24.6378 20.2218C24.7332 20.2218 24.8286 20.2154 24.9177 20.2281C25.1466 20.2535 25.3119 20.4316 25.3119 20.6606C25.3119 20.8831 25.153 21.074 24.9304 21.0995C24.8477 21.1121 24.7586 21.1057 24.6759 21.1057C20.4017 21.1057 16.1211 21.0804 11.8468 21.1185C10.4794 21.1312 9.11822 20.3362 8.85108 18.5235C8.36769 15.1779 7.80797 11.845 7.28005 8.50574C7.10832 7.40538 6.94294 6.30503 6.75214 5.21102C6.60584 4.33328 5.87439 3.72904 4.98392 3.72268C4.13798 3.71631 3.28568 3.70995 2.43974 3.72904C2.16624 3.7354 1.95634 3.65907 1.81641 3.41738C1.81641 3.3156 1.81641 3.21384 1.81641 3.11208Z" fill="#FF5502"/>
<path d="M18.9688 25.2335C18.9625 23.847 20.0947 22.7085 21.4812 22.7149C22.855 22.7149 23.9744 23.8406 23.9808 25.2209C23.9872 26.601 22.8741 27.7269 21.494 27.7396C20.1073 27.7523 18.9815 26.6265 18.9688 25.2335Z" fill="#FF5502"/>
<path d="M14.6893 25.2208C14.6957 26.6139 13.57 27.7459 12.1833 27.7396C10.803 27.7396 9.68362 26.6202 9.68362 25.24C9.67724 23.847 10.803 22.7148 12.1897 22.7148C13.5636 22.7148 14.6829 23.8343 14.6893 25.2208Z" fill="#FF5502"/>
</svg>
