<svg width="29" height="29" viewBox="0 0 29 29" fill="none" xmlns="http://www.w3.org/2000/svg">
<g clip-path="url(#clip0_27_1438)">
<mask id="mask0_27_1438" style="mask-type:luminance" maskUnits="userSpaceOnUse" x="0" y="0" width="29" height="29">
<path d="M28.9457 0.642822H0.601562V28.987H28.9457V0.642822Z" fill="white"/>
</mask>
<g mask="url(#mask0_27_1438)">
<path opacity="0.994" fill-rule="evenodd" clip-rule="evenodd" d="M4.67079 3.93673C7.0145 3.86299 9.21046 4.38891 11.2586 5.51448C12.3803 6.23017 13.2753 7.16204 13.9436 8.31015C13.9804 13.7354 13.9804 19.1606 13.9436 24.5859C11.9839 22.6793 9.63119 21.5997 6.88518 21.3474C6.12878 21.29 5.37219 21.2346 4.61544 21.1813C4.33725 21.0878 4.12503 20.9125 3.9788 20.6553C3.88693 15.3255 3.86848 9.99254 3.92344 4.65641C4.05724 4.29186 4.30636 4.05196 4.67079 3.93673Z" fill="#0AC3FF"/>
<path opacity="0.994" fill-rule="evenodd" clip-rule="evenodd" d="M23.6041 3.93699C24.07 3.91453 24.5314 3.94221 24.9881 4.02003C25.279 4.14493 25.4728 4.35714 25.5693 4.65666C25.6243 9.99279 25.6058 15.3257 25.5139 20.6556C25.3678 20.9127 25.1555 21.088 24.8773 21.1816C22.9799 21.1964 21.1346 21.5101 19.3414 22.1227C17.8874 22.6599 16.6234 23.4811 15.5492 24.5861C15.5123 19.1609 15.5123 13.7356 15.5492 8.3104C16.7393 6.353 18.4461 5.0705 20.67 4.4629C21.641 4.20276 22.6189 4.02745 23.6041 3.93699Z" fill="#0AC3FF"/>
<path opacity="0.978" fill-rule="evenodd" clip-rule="evenodd" d="M0.574219 24.918C0.574219 19.3267 0.574219 13.7353 0.574219 8.14401C0.730768 7.74204 1.02602 7.51142 1.45997 7.45201C1.75465 7.42439 2.04991 7.41515 2.34573 7.42433C2.3365 11.7425 2.34573 16.0605 2.37341 20.3785C2.57425 21.7759 3.37697 22.5601 4.78156 22.7313C6.96821 22.7059 9.03496 23.1857 10.9819 24.1707C11.5641 24.5128 12.0993 24.9189 12.5872 25.3886C9.83688 24.8467 7.06892 24.7728 4.28332 25.1671C3.38568 25.3098 2.49069 25.4666 1.59837 25.6377C1.09279 25.6198 0.751406 25.3799 0.574219 24.918Z" fill="#0AC3FF"/>
<path opacity="0.978" fill-rule="evenodd" clip-rule="evenodd" d="M28.9194 8.1443C28.9194 13.7356 28.9194 19.327 28.9194 24.9183C28.7422 25.3801 28.4008 25.6201 27.8952 25.638C25.2967 25.0512 22.6671 24.8205 20.0064 24.946C18.9589 25.0229 17.9255 25.1705 16.9062 25.3889C18.3821 24.047 20.1168 23.235 22.1101 22.9531C22.9723 22.8212 23.8396 22.7474 24.7121 22.7316C26.1166 22.5603 26.9193 21.7762 27.1202 20.3788C27.1479 16.0608 27.1571 11.7428 27.1479 7.42462C27.5817 7.39517 28.0061 7.44129 28.4211 7.56302C28.6593 7.69965 28.8253 7.89341 28.9194 8.1443Z" fill="#0AC3FF"/>
</g>
</g>
<defs>
<clipPath id="clip0_27_1438">
<rect width="28.3442" height="28.3442" fill="white" transform="translate(0.601562 0.641846)"/>
</clipPath>
</defs>
</svg>
