<svg width="30" height="29" viewBox="0 0 30 29" fill="none" xmlns="http://www.w3.org/2000/svg">
<g clip-path="url(#clip0_27_1489)">
<mask id="mask0_27_1489" style="mask-type:luminance" maskUnits="userSpaceOnUse" x="0" y="0" width="30" height="29">
<path d="M29.1469 0.642822H0.802734V28.987H29.1469V0.642822Z" fill="white"/>
</mask>
<g mask="url(#mask0_27_1489)">
<path d="M27.7256 13.8747C27.7178 14.2996 27.5683 14.6774 27.2692 14.9922C26.7026 15.5666 26.136 16.1411 25.5615 16.6998C24.8769 17.3609 23.9168 17.3294 23.2165 16.629C20.4858 13.9062 17.7629 11.1755 15.0322 8.45263C14.4105 7.83094 13.7966 7.21713 13.175 6.59543C12.4273 5.83996 12.4195 4.89563 13.175 4.14803C13.6786 3.63651 14.1902 3.13286 14.7017 2.62922C15.4414 1.89735 16.4251 1.89735 17.1648 2.63709C20.5014 5.97374 23.8381 9.31828 27.1827 12.6549C27.5132 12.9776 27.7178 13.3789 27.7256 13.8747Z" fill="#009E9D"/>
<path d="M2.2207 15.7162C2.23644 15.2992 2.39382 14.9215 2.69287 14.6145C3.24374 14.0558 3.79459 13.497 4.36119 12.9462C5.03798 12.293 6.02953 12.2851 6.69056 12.9541C10.0744 16.33 13.4583 19.714 16.8344 23.0978C17.5111 23.7745 17.4954 24.7347 16.8265 25.4193C16.3071 25.9545 15.772 26.4817 15.2447 27.009C14.4893 27.7566 13.5448 27.7566 12.7973 27.0011C9.68887 23.8926 6.58039 20.7841 3.47196 17.6758C3.21225 17.4161 2.95257 17.1642 2.70074 16.9046C2.38596 16.5662 2.22857 16.1805 2.2207 15.7162Z" fill="#009E9D"/>
<path d="M2.27725 17.8564C5.49587 21.0751 8.69876 24.278 11.9332 27.5123C11.5161 27.9058 11.1147 28.3544 10.6346 28.7085C10.0129 29.165 9.18667 29.0311 8.59645 28.4488C7.1406 27.0009 5.68474 25.545 4.23676 24.0892C3.29242 23.1448 2.34807 22.2005 1.39587 21.2483C0.608924 20.4613 0.608923 19.5327 1.40374 18.7379C1.70278 18.4388 1.99395 18.1398 2.27725 17.8564Z" fill="#009E9D"/>
<path d="M18.0625 2.14109C18.4166 1.77122 18.7551 1.362 19.1406 1.02361C19.7937 0.464881 20.7223 0.527837 21.3597 1.1574C22.3042 2.09386 23.2406 3.03033 24.177 3.97467C25.633 5.43052 27.0809 6.87851 28.5368 8.33437C29.3552 9.15279 29.3474 10.0657 28.5289 10.8919C28.2377 11.1832 27.9466 11.4743 27.6712 11.7577C24.4525 8.53898 21.2575 5.33609 18.0625 2.14109Z" fill="#009E9D"/>
<path d="M15.7823 10.5852C16.9156 11.7184 18.0645 12.8674 19.1977 14.0006C17.5293 15.6688 15.8532 17.3451 14.1927 19.0055C13.0752 17.8802 11.9184 16.7234 10.7852 15.5823C12.422 13.9455 14.0982 12.2693 15.7823 10.5852Z" fill="#009E9D"/>
<path d="M6.01511 27.2212C5.29899 28.1969 4.18939 28.2913 3.35523 27.4571C3.03258 27.1424 2.71781 26.8198 2.39515 26.4972C1.49016 25.5921 1.53738 24.5927 2.59189 23.7271C3.73296 24.8917 4.87405 26.0564 6.01511 27.2212Z" fill="#009E9D"/>
<path d="M23.9609 2.35374C24.6534 1.42514 25.7788 1.33857 26.6052 2.16487C26.9356 2.48752 27.2582 2.81803 27.5809 3.14069C28.4623 4.02207 28.3915 5.0687 27.4235 5.82417C26.2746 4.66736 25.1177 3.51055 23.9609 2.35374Z" fill="#009E9D"/>
</g>
</g>
<defs>
<clipPath id="clip0_27_1489">
<rect width="28.3442" height="28.3442" fill="white" transform="translate(0.802734 0.642578)"/>
</clipPath>
</defs>
</svg>
