<svg width="30" height="29" viewBox="0 0 30 29" fill="none" xmlns="http://www.w3.org/2000/svg">
<g clip-path="url(#clip0_27_1507)">
<mask id="mask0_27_1507" style="mask-type:luminance" maskUnits="userSpaceOnUse" x="0" y="0" width="30" height="29">
<path d="M29.1469 0.0593262H0.802734V28.4035H29.1469V0.0593262Z" fill="white"/>
</mask>
<g mask="url(#mask0_27_1507)">
<path opacity="0.992" fill-rule="evenodd" clip-rule="evenodd" d="M29.1196 8.55731C29.1196 9.22164 29.1196 9.88596 29.1196 10.5503C28.7864 12.6931 27.9652 14.6307 26.6561 16.363C25.3487 18.0401 23.9185 19.6178 22.3657 21.0963C20.1722 23.0967 17.9578 25.0713 15.7226 27.0198C15.2058 27.3519 14.6891 27.3519 14.1725 27.0198C11.5561 24.7728 8.97261 22.4845 6.42208 20.1551C4.9552 18.763 3.65425 17.2407 2.51922 15.588C1.57881 14.0674 0.997535 12.4251 0.775391 10.661C0.775391 9.97825 0.775391 9.29542 0.775391 8.61267C1.22846 5.46432 2.88925 3.20379 5.75777 1.8311C9.10044 0.601624 12.1637 1.09063 14.9475 3.29813C17.5691 1.20718 20.4847 0.662808 23.6944 1.66502C26.7937 2.94598 28.6022 5.24341 29.1196 8.55731ZM13.2313 8.22515C14.3754 8.22515 15.5195 8.22515 16.6636 8.22515C16.6636 9.3693 16.6636 10.5133 16.6636 11.6575C17.8077 11.6575 18.9518 11.6575 20.0959 11.6575C20.0959 12.7831 20.0959 13.9088 20.0959 15.0344C18.9518 15.0344 17.8077 15.0344 16.6636 15.0344C16.6636 16.1785 16.6636 17.3226 16.6636 18.4667C15.5195 18.4667 14.3754 18.4667 13.2313 18.4667C13.2313 17.3226 13.2313 16.1785 13.2313 15.0344C12.0872 15.0344 10.9431 15.0344 9.79898 15.0344C9.79898 13.9088 9.79898 12.7831 9.79898 11.6575C10.9431 11.6575 12.0872 11.6575 13.2313 11.6575C13.2313 10.5133 13.2313 9.3693 13.2313 8.22515Z" fill="#EA6190"/>
</g>
</g>
<defs>
<clipPath id="clip0_27_1507">
<rect width="28.3442" height="28.3442" fill="white" transform="translate(0.802734 0.0593262)"/>
</clipPath>
</defs>
</svg>
