<svg width="29" height="30" viewBox="0 0 29 30" fill="none" xmlns="http://www.w3.org/2000/svg">
<mask id="mask0_27_1419" style="mask-type:luminance" maskUnits="userSpaceOnUse" x="0" y="0" width="29" height="30">
<path d="M28.9457 0.807373H0.601562V29.1515H28.9457V0.807373Z" fill="white"/>
</mask>
<g mask="url(#mask0_27_1419)">
<path d="M14.5133 0.890484C14.4469 0.934772 14.2088 1.36104 13.9763 1.8316C13.7493 2.30216 13.5279 2.68968 13.4891 2.68968C13.4504 2.68968 13.0186 2.75057 12.5369 2.82254C11.7232 2.9388 11.6457 2.96094 11.5239 3.09934C11.2636 3.40382 11.3633 3.59204 12.1882 4.36154L12.8248 4.95389L12.6643 5.85625C12.5757 6.35449 12.5037 6.8029 12.5037 6.85273C12.5037 7.01881 12.775 7.28453 12.9522 7.28453C13.0462 7.28453 13.4504 7.10738 13.943 6.84719L14.7734 6.40431L15.6038 6.84719C16.0578 7.08524 16.4952 7.28453 16.5782 7.28453C16.7442 7.28453 17.0432 7.01327 17.0432 6.85826C17.0432 6.8029 16.9713 6.35449 16.8827 5.85625L16.7221 4.95389L17.3588 4.36154C18.2003 3.58097 18.2999 3.38167 18.001 3.08273C17.857 2.94987 17.7629 2.92219 16.9103 2.8004L15.9748 2.66753L15.5706 1.83714C15.3437 1.37765 15.1112 0.956916 15.0447 0.901557C14.9008 0.785301 14.6738 0.779765 14.5133 0.890484Z" fill="#C0645B"/>
<path d="M8.61187 4.24463C8.56204 4.27231 8.46793 4.39963 8.40704 4.51589C8.31293 4.70411 8.2631 4.74286 8.06381 4.77608C7.58218 4.84805 7.42717 5.25771 7.74272 5.62308C7.88112 5.78916 7.90326 5.86667 7.9088 6.12686C7.9088 6.37598 7.93094 6.45902 8.03613 6.55313C8.19113 6.69706 8.44025 6.70813 8.70044 6.58634C8.87206 6.5033 8.89974 6.5033 9.06028 6.58634C9.31494 6.71921 9.55296 6.69706 9.71904 6.53098C9.84641 6.40366 9.85748 6.35937 9.82975 6.11025C9.79654 5.84452 9.80761 5.81131 9.98476 5.61201C10.1011 5.48468 10.1786 5.34629 10.1786 5.25771C10.1786 5.05288 9.91284 4.81483 9.64153 4.76501C9.45889 4.73733 9.39798 4.69858 9.34815 4.56571C9.21529 4.25016 8.86652 4.09516 8.61187 4.24463Z" fill="#C0645B"/>
<path d="M20.4084 4.29492C20.3309 4.35028 20.2368 4.47761 20.198 4.56618C20.1427 4.70458 20.0929 4.7378 19.888 4.77101C19.7109 4.79316 19.6057 4.85405 19.5061 4.97031C19.3179 5.19175 19.3289 5.36336 19.5614 5.61248C19.7386 5.81178 19.7497 5.84499 19.7164 6.11072C19.6887 6.35984 19.6998 6.40413 19.8272 6.53145C19.9932 6.69753 20.2147 6.71968 20.4915 6.58681C20.6631 6.50377 20.6908 6.50377 20.8513 6.58681C21.1059 6.71968 21.3717 6.70307 21.5212 6.54253C21.6208 6.43734 21.643 6.3543 21.6319 6.13286C21.6208 5.89482 21.643 5.83392 21.7924 5.6457C22.1191 5.25264 21.9751 4.85405 21.4824 4.77655C21.2831 4.74333 21.2333 4.70458 21.1391 4.51636C20.962 4.17313 20.6741 4.08455 20.4084 4.29492Z" fill="#C0645B"/>
<path d="M4.42746 6.67C4.36656 6.7309 4.27798 6.85269 4.2337 6.94126C4.16727 7.06306 4.10083 7.11288 3.93475 7.14056C3.6026 7.19038 3.45312 7.33985 3.45312 7.61112C3.45312 7.78827 3.49188 7.87131 3.63028 8.01524C3.79082 8.18132 3.80189 8.22007 3.77421 8.4858C3.74653 8.74045 3.7576 8.78474 3.88493 8.91207C4.05655 9.08368 4.27245 9.10029 4.56032 8.96189C4.74301 8.87332 4.76515 8.87332 4.94784 8.96189C5.22464 9.09476 5.40179 9.07815 5.56233 8.91761C5.68412 8.79581 5.70073 8.73492 5.68412 8.48026C5.66751 8.21454 5.68412 8.17025 5.8502 7.98203C6.17129 7.61665 6.02182 7.21806 5.52911 7.14056C5.33536 7.10734 5.28553 7.06859 5.19142 6.89144C5.13606 6.77518 5.03641 6.65339 4.98105 6.62018C4.80944 6.5316 4.54371 6.55375 4.42746 6.67Z" fill="#C0645B"/>
<path d="M24.5556 6.62555C24.5058 6.65323 24.4117 6.77502 24.3508 6.89128C24.2567 7.0795 24.2124 7.10718 23.9965 7.1404C23.5204 7.21236 23.3765 7.61649 23.6976 7.97633C23.8526 8.15901 23.8692 8.20884 23.8581 8.50224C23.847 8.79012 23.8581 8.8344 23.9965 8.93959C24.1737 9.07799 24.3398 9.08906 24.5999 8.96173C24.7826 8.87315 24.8048 8.87315 24.9874 8.96173C25.2753 9.10013 25.4912 9.08352 25.6628 8.91191C25.7902 8.78458 25.8013 8.74029 25.7735 8.48564C25.7459 8.21991 25.757 8.18116 25.9175 8.01508C26.0559 7.87114 26.0946 7.7881 26.0946 7.61095C26.0946 7.33969 25.9452 7.19022 25.613 7.1404C25.447 7.11272 25.3805 7.06289 25.3141 6.9411C25.1314 6.59233 24.8324 6.46501 24.5556 6.62555Z" fill="#C0645B"/>
<path d="M10.3604 9.22203C9.74034 9.31614 9.18669 9.73687 8.91543 10.3182L8.76596 10.6337L8.74935 19.7293L8.73828 28.8249L8.89882 28.991L9.05937 29.1516H10.4212C11.8606 29.1516 11.999 29.1294 12.1097 28.8913C12.154 28.8028 12.1706 27.9004 12.1706 25.9905C12.1706 23.1506 12.1762 23.0731 12.3865 22.9125C12.5138 22.8128 17.0312 22.8128 17.1585 22.9125C17.3689 23.0731 17.3744 23.1506 17.3744 25.9905C17.3744 27.9004 17.391 28.8028 17.4353 28.8913C17.5461 29.1294 17.6844 29.1516 19.1238 29.1516H20.4856L20.6462 28.991L20.8067 28.8249L20.7956 19.7293L20.7791 10.6337L20.6295 10.3126C20.4303 9.89746 20.0095 9.48776 19.6054 9.32168L19.2844 9.19435L14.9663 9.18882C12.5913 9.18328 10.5209 9.19989 10.3604 9.22203ZM17.7508 14.0716C17.9446 14.2044 17.9944 14.3982 17.9059 14.6196C17.8616 14.7192 17.7786 14.83 17.7176 14.8632C17.6401 14.9075 16.6879 14.9241 14.7503 14.9241H11.8994L11.7554 14.7967C11.5395 14.6141 11.5395 14.293 11.7498 14.1159L11.8994 13.983H14.7614C17.2969 13.983 17.6401 13.9941 17.7508 14.0716ZM16.9647 18.6554C17.081 18.755 17.1197 18.8325 17.1197 18.993C17.1197 19.1536 17.081 19.2311 16.9647 19.3308L16.8153 19.4636H14.7725H12.7298L12.5802 19.3308C12.464 19.2311 12.4252 19.1536 12.4252 18.993C12.4252 18.8325 12.464 18.755 12.5802 18.6554L12.7298 18.5225H14.7725H16.8153L16.9647 18.6554Z" fill="#C0645B"/>
<path d="M4.40483 15.9812C3.88998 16.103 3.39175 16.5072 3.14816 16.9998L3.00977 17.2766V22.5358V27.795L3.13709 28.0496C3.34192 28.4649 3.61872 28.7417 4.02285 28.9409L4.38822 29.1236L5.9549 29.1402L7.52158 29.1568L7.65998 29.0185L7.79838 28.88V22.5524C7.79285 15.8539 7.80392 16.1251 7.53819 15.9868C7.39426 15.9093 4.73145 15.9037 4.40483 15.9812ZM6.05455 20.3214C6.19295 20.4543 6.19295 20.4543 6.19295 21.65C6.19295 22.8458 6.19295 22.8458 6.05455 22.9787C5.85526 23.1835 5.57846 23.1669 5.39577 22.9454L5.25183 22.7739V21.639V20.5041L5.41238 20.3435C5.62274 20.1388 5.86633 20.1277 6.05455 20.3214Z" fill="#C0645B"/>
<path d="M21.9971 15.9866C21.7425 16.136 21.7536 15.887 21.748 22.5523V28.8798L21.8864 29.0183L22.0248 29.1566L23.5915 29.1401L25.1582 29.1234L25.5236 28.9408C25.9278 28.7415 26.2045 28.4647 26.4093 28.0494L26.5366 27.7948V22.5356V17.2764L26.3484 16.9277C26.1381 16.5402 25.8392 16.2634 25.4239 16.0752C25.1638 15.9534 25.0807 15.9478 23.6303 15.9312C22.5342 15.9257 22.0747 15.9367 21.9971 15.9866ZM24.112 20.3157L24.267 20.4486L24.2835 21.6112L24.3002 22.7681L24.1562 22.9453C23.968 23.1667 23.6912 23.1834 23.4919 22.9785C23.3535 22.8456 23.3535 22.8456 23.3535 21.6499C23.3535 20.4541 23.3535 20.4541 23.4919 20.3212C23.6635 20.1441 23.9071 20.1441 24.112 20.3157Z" fill="#C0645B"/>
<path d="M13.2739 23.942L13.1133 24.1026V26.4664V28.8303L13.2739 28.9908L13.4344 29.1514H14.7741H16.1138L16.2744 28.9908L16.4349 28.8303V26.4664V24.1026L16.2744 23.942L16.1138 23.7815H14.7741H13.4344L13.2739 23.942Z" fill="#C0645B"/>
</g>
</svg>
