<svg width="29" height="30" viewBox="0 0 29 30" fill="none" xmlns="http://www.w3.org/2000/svg">
<path d="M4.37482 2.003C3.88212 2.08049 3.5721 2.17461 3.1569 2.36837C2.49259 2.68945 1.87809 3.29841 1.56254 3.96272C1.16949 4.79866 1.19163 4.23399 1.19163 12.6819V20.3215L1.34664 20.7755C1.64558 21.6668 2.28222 22.4086 3.10154 22.8404C3.90426 23.2556 3.10708 23.2279 14.1569 23.2279C21.0713 23.2279 24.1659 23.2113 24.3708 23.167C24.8191 23.0784 25.6163 22.6633 25.9762 22.3422C26.5962 21.7886 26.9948 21.0246 27.1277 20.1554C27.1664 19.8953 27.183 17.3764 27.172 12.3497C27.1498 4.08451 27.183 4.76544 26.7623 3.9129C26.4744 3.33163 25.8156 2.67285 25.2454 2.39052C24.3763 1.96424 25.3617 2.003 14.3672 1.99192C8.94755 1.98638 4.45232 1.99192 4.37482 2.003ZM13.4261 8.93403C13.8911 9.16654 18.0376 11.5747 18.1538 11.6799C18.3587 11.8625 18.5469 12.311 18.5469 12.6321C18.5469 12.9753 18.331 13.4348 18.0819 13.6175C17.9877 13.6894 16.8751 14.315 15.6129 15.0126L13.3154 16.2803H12.8614C12.4518 16.2803 12.3909 16.2637 12.175 16.1142C11.8982 15.9205 11.71 15.6602 11.627 15.3724C11.5439 15.079 11.5549 9.99139 11.638 9.71459C11.7155 9.45441 12.0145 9.08903 12.2581 8.96171C12.6179 8.76795 13.0829 8.75688 13.4261 8.93403Z" fill="#FDC330"/>
<path d="M1.83488 25.7523C0.855006 26.2451 1.04323 27.701 2.11167 27.9335C2.33311 27.9778 4.30392 27.9889 9.64063 27.9778L16.8706 27.9612L17.1363 27.7952C17.5294 27.5516 17.7397 27.1419 17.701 26.699C17.6678 26.3115 17.4851 26.007 17.1529 25.7911L16.9204 25.6361L9.52433 25.6195L2.12828 25.6084L1.83488 25.7523Z" fill="#FDC330"/>
<path d="M20.817 25.6969C20.2247 25.9515 19.9369 26.6601 20.1804 27.258C20.5347 28.0995 21.6917 28.2102 22.2232 27.4462C22.4446 27.1306 22.4889 26.6213 22.3228 26.2948C22.0239 25.719 21.3706 25.4588 20.817 25.6969Z" fill="#FDC330"/>
<path d="M25.5898 25.6692C25.4847 25.7024 25.2965 25.8352 25.1636 25.9625C24.7761 26.35 24.7041 26.8206 24.9476 27.3189C25.3186 28.0607 26.2984 28.1936 26.841 27.568C27.6492 26.6546 26.7801 25.3314 25.5898 25.6692Z" fill="#FDC330"/>
</svg>
