<svg width="29" height="29" viewBox="0 0 29 29" fill="none" xmlns="http://www.w3.org/2000/svg">
<g clip-path="url(#clip0_27_1382)">
<mask id="mask0_27_1382" style="mask-type:luminance" maskUnits="userSpaceOnUse" x="0" y="0" width="29" height="29">
<path d="M28.7446 0.642822H0.400391V28.987H28.7446V0.642822Z" fill="white"/>
</mask>
<g mask="url(#mask0_27_1382)">
<path opacity="0.985" fill-rule="evenodd" clip-rule="evenodd" d="M15.0429 0.615234C15.1905 0.615234 15.3382 0.615234 15.4858 0.615234C16.5112 1.40093 17.5353 2.19441 18.5582 2.9957C18.5767 2.66354 18.5952 2.33139 18.6136 1.99923C18.7668 1.6852 19.016 1.58371 19.361 1.69475C19.4256 1.75934 19.4901 1.82392 19.5547 1.88851C19.6237 2.53122 19.6607 3.17708 19.6654 3.8261C20.4447 4.43254 21.229 5.03227 22.0183 5.62529C22.4522 5.90389 22.5076 6.23607 22.1844 6.62176C21.8217 6.70038 21.4527 6.72806 21.0772 6.7048C21.1043 9.58816 21.0766 12.4669 20.9941 15.341C20.9268 15.4267 20.8438 15.4912 20.745 15.5347C17.0913 15.5716 13.4375 15.5716 9.78377 15.5347C9.68483 15.4912 9.60184 15.4267 9.53461 15.341C9.45206 12.4669 9.42442 9.58816 9.45162 6.7048C9.07602 6.72806 8.70699 6.70038 8.34439 6.62176C8.10058 6.40448 8.06365 6.15533 8.23367 5.87441C10.5172 4.13364 12.7869 2.38058 15.0429 0.615234ZM13.9911 10.6353C14.8399 10.6353 15.6888 10.6353 16.5377 10.6353C16.5377 11.9455 16.5377 13.2557 16.5377 14.5659C15.6888 14.5659 14.8399 14.5659 13.9911 14.5659C13.9911 13.2557 13.9911 11.9455 13.9911 10.6353Z" fill="#895D7B"/>
<path opacity="0.901" fill-rule="evenodd" clip-rule="evenodd" d="M20.3583 18.3307C20.7121 18.2915 21.0443 18.356 21.3548 18.5244C21.3987 18.5845 21.4356 18.6491 21.4655 18.7182C20.7109 19.1278 19.9451 19.5153 19.1681 19.8808C18.7537 19.6872 18.3199 19.5489 17.8672 19.4655C18.6255 18.921 19.4559 18.5427 20.3583 18.3307Z" fill="#895D7B"/>
<path opacity="0.933" fill-rule="evenodd" clip-rule="evenodd" d="M23.7905 18.7181C24.332 18.6923 24.7749 18.8861 25.1191 19.2993C23.7578 20.0862 22.383 20.8521 20.9948 21.5968C20.7892 21.148 20.5032 20.7605 20.1367 20.4342C21.0742 19.9469 22.0153 19.458 22.9602 18.9672C23.2388 18.8649 23.5156 18.7818 23.7905 18.7181Z" fill="#895D7B"/>
<path opacity="0.987" fill-rule="evenodd" clip-rule="evenodd" d="M0.373047 19.5483C1.79395 19.5483 3.21484 19.5483 4.63575 19.5483C4.63575 22.6853 4.63575 25.8224 4.63575 28.9595C3.21484 28.9595 1.79395 28.9595 0.373047 28.9595C0.373047 25.8224 0.373047 22.6853 0.373047 19.5483Z" fill="#895D7B"/>
<path opacity="0.979" fill-rule="evenodd" clip-rule="evenodd" d="M28.7173 20.1574C28.7173 20.2681 28.7173 20.3788 28.7173 20.4895C25.3521 22.8301 21.9936 25.1829 18.6418 27.5478C18.4597 27.685 18.2567 27.7772 18.0328 27.8246C16.5366 28.013 15.0419 27.9946 13.5487 27.7693C11.411 27.4562 9.29813 27.0225 7.20996 26.4684C6.65021 26.7483 6.09662 27.0435 5.54917 27.3541C5.51226 25.3242 5.51226 23.2944 5.54917 21.2646C7.6442 19.5972 9.9232 19.3111 12.3861 20.4064C14.231 20.3788 16.0763 20.3788 17.9221 20.4064C18.6832 20.5517 19.3383 20.8931 19.8873 21.4306C20.0139 21.573 20.0785 21.7391 20.0811 21.9289C17.5514 22.4059 15.0233 22.8949 12.4969 23.3959C12.1347 23.5893 12.0793 23.8477 12.3308 24.1709C12.5266 24.2542 12.7296 24.2726 12.9397 24.2263C15.5773 23.7036 18.2162 23.1869 20.8562 22.6762C22.5442 21.7676 24.2235 20.845 25.8939 19.9082C26.7042 19.7052 27.5162 19.6868 28.3297 19.8528C28.5025 19.9063 28.6316 20.0078 28.7173 20.1574Z" fill="#895D7B"/>
</g>
</g>
<defs>
<clipPath id="clip0_27_1382">
<rect width="28.3442" height="28.3442" fill="white" transform="translate(0.400391 0.641846)"/>
</clipPath>
</defs>
</svg>
