<svg width="29" height="29" viewBox="0 0 29 29" fill="none" xmlns="http://www.w3.org/2000/svg">
<g clip-path="url(#clip0_27_1453)">
<mask id="mask0_27_1453" style="mask-type:luminance" maskUnits="userSpaceOnUse" x="0" y="0" width="29" height="29">
<path d="M28.9457 0.0593262H0.601562V28.4035H28.9457V0.0593262Z" fill="white"/>
</mask>
<g mask="url(#mask0_27_1453)">
<mask id="mask1_27_1453" style="mask-type:luminance" maskUnits="userSpaceOnUse" x="0" y="0" width="29" height="29">
<path d="M28.9457 0.0593262H0.601562V28.4035H28.9457V0.0593262Z" fill="white"/>
</mask>
<g mask="url(#mask1_27_1453)">
<path d="M28.9445 13.3991C28.9445 13.9541 28.9445 14.5034 28.9445 15.0583C28.9268 15.1352 28.9031 15.2179 28.8973 15.2946C28.7614 17.2728 28.2477 19.1506 27.2793 20.8749C24.6692 25.5163 20.6892 28.0436 15.3688 28.3742C12.8237 28.5338 10.385 27.9845 8.15283 26.7445C3.48785 24.1463 0.954593 20.1603 0.623911 14.8281C0.452665 12.0233 1.11993 9.37771 2.6021 6.98621C5.3007 2.64601 9.22755 0.325335 14.3354 0.0773233C16.5734 -0.0348722 18.7288 0.408006 20.7424 1.39414C25.118 3.53176 27.7871 7.00392 28.7201 11.7929C28.8264 12.3184 28.8677 12.8617 28.9445 13.3991ZM25.738 6.89763C25.7026 6.8386 25.6612 6.74411 25.6023 6.65553C24.2559 4.74821 22.5257 3.28966 20.4176 2.28581C20.2995 2.22675 20.1106 2.22084 19.9865 2.2681C18.4926 2.8527 17.0103 3.4491 15.5223 4.03961C15.3451 4.11047 15.2684 4.18722 15.2684 4.39391C15.2802 5.82292 15.2684 7.25194 15.2802 8.68097C15.2802 8.80498 15.357 8.97027 15.4514 9.04706C16.8864 10.2045 18.3272 11.356 19.7739 12.5015C19.8626 12.5724 20.0338 12.596 20.1341 12.5606C21.6045 12.0822 23.0689 11.5862 24.5393 11.1079C24.7106 11.0489 24.7874 10.9603 24.8228 10.7891C24.9526 10.2045 25.0944 9.62573 25.2301 9.04113C25.3955 8.34438 25.5609 7.64759 25.738 6.89763ZM14.2704 6.55516C14.2704 5.82884 14.2646 5.0966 14.2764 4.37028C14.2764 4.21084 14.2292 4.12819 14.0756 4.06322C12.5461 3.46681 11.0286 2.85859 9.49922 2.26218C9.4047 2.22675 9.25707 2.22675 9.1685 2.2681C7.01316 3.28375 5.26527 4.77182 3.90711 6.72048C3.85396 6.79726 3.82444 6.92717 3.84215 7.02164C4.1315 8.28532 4.43856 9.54902 4.72791 10.8126C4.76334 10.978 4.84011 11.0547 4.99954 11.1079C6.4699 11.5922 7.93435 12.0822 9.4047 12.5606C9.511 12.596 9.68222 12.5724 9.76495 12.5015C11.2116 11.356 12.6524 10.2045 14.0874 9.04706C14.1819 8.97027 14.2586 8.80498 14.2586 8.68097C14.2764 7.97826 14.2704 7.26376 14.2704 6.55516ZM27.9288 15.4955C27.9111 15.4659 27.8698 15.3832 27.8166 15.3183C26.9427 14.2671 26.0687 13.222 25.2007 12.1709C25.1003 12.0468 25.0176 12.0113 24.8523 12.0646C23.3878 12.5606 21.9175 13.0448 20.4589 13.5409C20.3586 13.5763 20.2464 13.6885 20.2169 13.7889C19.7739 15.5189 19.3429 17.2492 18.9236 18.9852C18.9 19.0797 18.9236 19.2273 18.9826 19.3041C19.6676 20.2311 20.3644 21.1465 21.0672 22.0617C21.1202 22.1326 21.2502 22.1918 21.3328 22.1798C22.7619 21.9614 24.1909 21.737 25.6199 21.5008C25.744 21.4832 25.8915 21.3769 25.9506 21.2706C26.3758 20.4379 26.8304 19.6112 27.1907 18.7491C27.6099 17.7334 27.8166 16.6527 27.9288 15.4955ZM8.34179 22.2094C8.38903 22.168 8.4658 22.115 8.52485 22.0441C9.20983 21.1405 9.88895 20.2311 10.5621 19.3219C10.6211 19.2391 10.6507 19.0974 10.6271 19.003C10.2019 17.267 9.77079 15.5367 9.33384 13.8006C9.31022 13.7002 9.19803 13.5822 9.09763 13.5468C7.62728 13.0448 6.14512 12.5606 4.67477 12.0646C4.53895 12.0174 4.46218 12.035 4.3677 12.1472C3.48785 13.2101 2.59619 14.273 1.71634 15.3418C1.6573 15.4126 1.62187 15.5426 1.63367 15.6372C1.84035 17.6508 2.4899 19.5108 3.5528 21.2351C3.67091 21.4299 3.81263 21.5127 4.02521 21.5421C4.81649 21.6603 5.60776 21.7901 6.39904 21.9142C7.03678 22.0027 7.66271 22.1031 8.34179 22.2094ZM9.24526 22.7763C9.25707 22.8058 9.25707 22.8295 9.26889 22.8412C10.1605 24.2408 11.0522 25.6402 11.9497 27.0337C12.0029 27.1106 12.1151 27.1755 12.2096 27.1933C14.0638 27.5772 15.912 27.5239 17.7485 27.1046C17.843 27.0811 17.9493 27.0043 17.9965 26.9216C18.7583 25.6048 19.5141 24.288 20.2581 22.9593C20.2995 22.8884 20.2936 22.7408 20.2464 22.6758C19.5555 21.7488 18.8646 20.8335 18.156 19.9183C18.1028 19.8474 17.9729 19.7884 17.8785 19.7884C15.8057 19.7825 13.7272 19.7825 11.6545 19.7884C11.566 19.7884 11.4537 19.8414 11.4006 19.9064C10.6743 20.863 9.95981 21.8255 9.24526 22.7763Z" fill="#3CDCA7"/>
</g>
</g>
</g>
<defs>
<clipPath id="clip0_27_1453">
<rect width="28.3442" height="28.3442" fill="white" transform="translate(0.601562 0.059082)"/>
</clipPath>
</defs>
</svg>
