<svg width="29" height="29" viewBox="0 0 29 29" fill="none" xmlns="http://www.w3.org/2000/svg">
<path d="M27.3333 4.53025C27.1895 5.35189 26.676 5.92018 26.094 6.47479C24.4302 8.04273 22.7937 9.6381 21.1436 11.2129C20.993 11.3566 20.9588 11.4799 21.0272 11.6784C22.4241 15.8825 23.8208 20.0934 25.2176 24.2973C25.2792 24.4822 25.2655 24.5987 25.1148 24.7424C24.3138 25.523 23.5263 26.324 22.7321 27.1182C22.6706 27.1799 22.6089 27.2347 22.5267 27.31C20.2809 23.6606 18.0419 20.0317 15.7962 16.3822C15.7345 16.4303 15.6798 16.4644 15.6388 16.5055C13.8106 18.2584 11.9824 20.0112 10.1612 21.7708C10.079 21.8461 10.0379 22.0104 10.0516 22.1268C10.216 23.1812 10.3939 24.2357 10.5583 25.2901C10.572 25.3723 10.5583 25.4887 10.5035 25.5366C9.71615 26.3378 8.92189 27.1251 8.10709 27.9399C8.07285 27.8509 8.03863 27.7893 8.01808 27.7208C7.45662 26.1255 6.89518 24.5301 6.34059 22.9349C6.28581 22.7841 6.21049 22.702 6.05986 22.6473C4.46452 22.0926 2.86919 21.5312 1.27385 20.9697C1.21223 20.9492 1.14376 20.9218 1.01367 20.8191C1.12322 20.7437 1.25331 20.6753 1.34917 20.5795C2.03386 19.9016 2.71856 19.2101 3.4101 18.5322C3.48542 18.4569 3.63604 18.4159 3.73875 18.4296C4.79317 18.5938 5.84759 18.7719 6.90203 18.9362C6.99789 18.9499 7.14851 18.9088 7.21699 18.8403C8.99718 16.9985 10.7637 15.1498 12.5371 13.3081C12.5645 13.2806 12.5918 13.2464 12.6329 13.1848C8.97663 10.9458 5.34092 8.70688 1.67097 6.44739C1.9517 6.17352 2.21873 5.91333 2.47892 5.66C3.06776 5.07116 3.66344 4.49602 4.23857 3.89349C4.39605 3.72917 4.5193 3.71547 4.7247 3.78394C7.9633 4.86576 11.2087 5.93387 14.4541 7.00884C15.4127 7.3238 16.3714 7.63876 17.323 7.96741C17.5216 8.03588 17.6448 8.00849 17.7887 7.85101C19.425 6.13243 21.0752 4.4344 22.7048 2.70897C23.1909 2.18861 23.7455 1.79833 24.4575 1.65454C24.6835 1.65454 24.9027 1.65454 25.1286 1.65454C25.1834 1.66823 25.2381 1.69562 25.2998 1.70247C25.9707 1.84625 26.5254 2.18176 26.8883 2.76375C27.0937 3.09924 27.1963 3.48953 27.3401 3.85926C27.3333 4.0852 27.3333 4.31115 27.3333 4.53025Z" fill="#266EF2"/>
</svg>
