<svg width="570" height="599" viewBox="0 0 570 599" fill="none" xmlns="http://www.w3.org/2000/svg">
<circle cx="285" cy="302.001" r="149" fill="#0D50F1"/>
<circle cx="285" cy="302.002" r="156.544" stroke="#DBDBDB" stroke-opacity="0.8" stroke-width="0.685096"/>
<circle cx="284.999" cy="302.001" r="220.944" stroke="#DBDBDB" stroke-opacity="0.8" stroke-width="0.685096"/>
<circle cx="285" cy="302.001" r="284.657" stroke="#DBDBDB" stroke-opacity="0.8" stroke-width="0.685096"/>
<circle cx="24.1284" cy="187.128" r="17.1274" fill="#FBEBE2"/>
<path d="M17.4331 194.473L19.7253 192.181M19.7253 192.181C20.4894 192.945 21.545 193.417 22.7109 193.417C25.0428 193.417 26.9331 191.527 26.9331 189.195C26.9331 186.863 25.0428 184.973 22.7109 184.973C20.379 184.973 18.4887 186.863 18.4887 189.195C18.4887 190.361 18.9612 191.417 19.7253 192.181Z" stroke="#141B34" stroke-width="1.425" stroke-linecap="round"/>
<path d="M15.533 189.901C14.9288 188.86 14.583 187.651 14.583 186.362C14.583 182.447 17.773 179.273 21.708 179.273H26.458C30.393 179.273 33.583 182.447 33.583 186.362C33.583 189.449 31.6004 192.075 28.833 193.048" stroke="#141B34" stroke-width="1.425" stroke-linecap="round"/>
<circle cx="506.128" cy="299.128" r="17.1274" fill="#FFDDCB"/>
<path d="M510.049 309.113V308.174V308.155C510.054 307.637 510.478 307.218 511.003 307.213L511.075 307.213C512.435 307.202 513.603 306.258 513.881 304.945L513.891 304.895L514.384 302.463L515.278 302.022C515.757 301.786 515.996 301.668 516.048 301.452C516.1 301.236 515.939 301.025 515.618 300.603L513.806 298.22C513.626 297.983 513.535 297.864 513.487 297.739C513.439 297.613 513.424 297.436 513.394 297.08C513.068 293.179 509.754 290.113 505.714 290.113C501.458 290.113 498.007 293.516 498.007 297.713C498.007 300.325 499.344 302.63 501.379 303.998M501.379 303.998V309.113M501.379 303.998C501.968 304.394 502.615 304.711 503.306 304.935" stroke="black" stroke-width="1.14" stroke-linecap="round" stroke-linejoin="round"/>
<path d="M508.933 296.763L509.807 297.517C510.174 297.833 510.358 297.992 510.358 298.188C510.358 298.385 510.174 298.544 509.807 298.86L508.933 299.613" stroke="black" stroke-width="1.14" stroke-linecap="round" stroke-linejoin="round"/>
<path d="M502.282 296.763L501.409 297.517C501.041 297.833 500.857 297.992 500.857 298.188C500.857 298.385 501.041 298.544 501.409 298.86L502.282 299.613" stroke="black" stroke-width="1.14" stroke-linecap="round" stroke-linejoin="round"/>
<path d="M506.558 295.813L504.658 300.563" stroke="black" stroke-width="1.14" stroke-linecap="round" stroke-linejoin="round"/>
<circle cx="319.128" cy="581.128" r="17.1274" fill="#DCECF8"/>
<path d="M312.542 578.681C312.542 575.546 312.542 573.978 313.515 573.004C314.489 572.031 316.057 572.031 319.192 572.031C322.326 572.031 323.894 572.031 324.868 573.004C325.842 573.978 325.842 575.546 325.842 578.681V584.381C325.842 587.515 325.842 589.083 324.868 590.057C323.894 591.031 322.326 591.031 319.192 591.031C316.057 591.031 314.489 591.031 313.515 590.057C312.542 589.083 312.542 587.515 312.542 584.381V578.681Z" stroke="black" stroke-width="1.14" stroke-linecap="round"/>
<path d="M318.242 588.181H320.142" stroke="black" stroke-width="1.14" stroke-linecap="round" stroke-linejoin="round"/>
<path d="M316.341 572.031L316.426 572.538C316.609 573.637 316.701 574.187 317.078 574.521C317.471 574.87 318.029 574.881 319.191 574.881C320.354 574.881 320.912 574.87 321.305 574.521C321.682 574.187 321.774 573.637 321.957 572.538L322.041 572.031" stroke="black" stroke-width="1.14" stroke-linejoin="round"/>
<circle cx="285.128" cy="17.1284" r="16.6274" fill="#DCECF8" stroke="#0D50F1"/>
<path d="M275.956 16.8458C275.956 12.5914 275.956 10.4642 277.278 9.14248C278.599 7.8208 280.727 7.8208 284.981 7.8208C289.235 7.8208 291.363 7.8208 292.684 9.14248C294.006 10.4642 294.006 12.5914 294.006 16.8458C294.006 21.1002 294.006 23.2274 292.684 24.5492C291.363 25.8708 289.235 25.8708 284.981 25.8708C280.727 25.8708 278.599 25.8708 277.278 24.5492C275.956 23.2274 275.956 21.1002 275.956 16.8458Z" stroke="#141B34" stroke-width="1.425"/>
<path d="M275.956 13.9958H294.006" stroke="#141B34" stroke-width="1.425" stroke-linejoin="round"/>
<path d="M285.931 17.7957H289.731" stroke="#141B34" stroke-width="1.425" stroke-linecap="round" stroke-linejoin="round"/>
<path d="M285.931 21.5957H287.831" stroke="#141B34" stroke-width="1.425" stroke-linecap="round" stroke-linejoin="round"/>
<path d="M280.231 11.1458H280.24" stroke="#141B34" stroke-width="1.9" stroke-linecap="round" stroke-linejoin="round"/>
<path d="M284.031 11.1458H284.04" stroke="#141B34" stroke-width="1.9" stroke-linecap="round" stroke-linejoin="round"/>
<path d="M282.131 13.9958V25.8708" stroke="#141B34" stroke-width="1.425" stroke-linecap="round" stroke-linejoin="round"/>
</svg>
